<?xml version="1.0" encoding="UTF-8"?>
<svg version="1.1" xmlns="http://www.w3.org/2000/svg" width="1280" height="374">
<path d="M0 0 C7.96597401 6.958084 14.63593052 14.99548069 21.1875 23.26171875 C24.8191856 27.84259491 28.50444852 32.37502213 32.25 36.86328125 C33.36568359 38.20326172 33.36568359 38.20326172 34.50390625 39.5703125 C43.91161367 50.48325311 54.2732758 56.2317322 68.75 57.73828125 C93.75650082 58.86550193 116.8326642 41.95191825 137.42660522 29.60601807 C174.361917 7.47209993 174.361917 7.47209993 194.16796875 11.44921875 C201.77445569 13.78802573 206.78450598 18.22883842 212.25 23.86328125 C213.13558594 24.77464844 214.02117188 25.68601563 214.93359375 26.625 C221.38113191 33.41000944 227.19343903 40.65593905 232.8828125 48.08007812 C234.28052462 49.90309408 235.68623847 51.71969839 237.09375 53.53515625 C246.26535837 65.38821881 246.26535837 65.38821881 246.18554688 67.85693359 C244.83845841 70.74586183 243.07011874 71.46599521 240.28125 72.96484375 C239.24427979 73.53195068 238.20730957 74.09905762 237.13891602 74.68334961 C236.02057373 75.27897705 234.90223145 75.87460449 233.75 76.48828125 C231.43543236 77.75120214 229.12163069 79.01552782 226.80859375 80.28125 C225.67663574 80.89661621 224.54467773 81.51198242 223.37841797 82.14599609 C219.47586405 84.28822836 215.63502794 86.51968127 211.8125 88.80078125 C201.49212474 94.92774727 191.08110997 100.89692024 180.68017578 106.88574219 C177.26238601 108.85614056 173.8475451 110.83155338 170.43359375 112.80859375 C164.04650572 116.50650355 157.65079796 120.18916168 151.25 123.86328125 C150.34620605 124.38390137 149.44241211 124.90452148 148.51123047 125.44091797 C146.07495186 126.84065902 143.63261664 128.22905157 141.1875 129.61328125 C140.50429687 130.00749268 139.82109375 130.4017041 139.1171875 130.80786133 C127.85220296 137.12761843 116.35049733 139.74530972 103.75 136.30078125 C97.44868357 134.19546903 93.07322699 131.37342158 88.25 126.86328125 C87.41210938 126.10402344 86.57421875 125.34476563 85.7109375 124.5625 C79.44976431 118.61709202 74.32135252 112.17974126 69.16381836 105.28393555 C55.94315055 87.71578107 39.46908962 71.52343412 17.0390625 67.265625 C1.72992675 65.64001574 -13.01080691 66.3636386 -27.75 70.86328125 C-28.49636719 71.08870605 -29.24273438 71.31413086 -30.01171875 71.54638672 C-43.85178258 75.87287526 -56.24124091 82.62552374 -68.75 89.86328125 C-69.48927734 90.29012207 -70.22855469 90.71696289 -70.99023438 91.15673828 C-75.14900058 93.56777229 -79.28319441 96.01878116 -83.41357422 98.47802734 C-87.99128771 101.19212832 -92.59025136 103.86994921 -97.1875 106.55078125 C-98.19707764 107.13956055 -99.20665527 107.72833984 -100.24682617 108.33496094 C-109.96835445 113.99905318 -119.70636905 119.63417845 -129.46484375 125.234375 C-133.52123197 127.56553974 -137.55305485 129.93149592 -141.56640625 132.3359375 C-155.99659709 140.92336206 -168.90563874 147.0781542 -186.2109375 144.49609375 C-195.90982718 142.01181674 -202.62312813 133.41716057 -208.484375 125.8046875 C-227.0028976 101.76253661 -244.92666017 79.63793669 -276.0625 73.17578125 C-301.92533334 70.98401571 -326.26206732 78.46450349 -348.75 90.86328125 C-349.65169922 91.35715332 -350.55339844 91.85102539 -351.48242188 92.35986328 C-364.99504626 99.78469946 -378.33970351 107.49298208 -391.640625 115.2890625 C-401.27478634 120.93393276 -410.95455663 126.49967048 -420.63427734 132.06591797 C-423.66386008 133.81358981 -426.6862152 135.57316578 -429.70703125 137.3359375 C-431.55463899 138.40763572 -433.40229274 139.47925462 -435.25 140.55078125 C-436.47626099 141.27225342 -436.47626099 141.27225342 -437.72729492 142.00830078 C-452.43702954 150.50361641 -467.41777871 153.66405109 -484.125 149.30078125 C-499.47014373 144.20343247 -509.75790859 134.32791996 -519.5078125 121.74609375 C-522.44736792 117.96666536 -525.47423523 114.26131551 -528.5 110.55078125 C-530.11194681 108.57103746 -531.72328478 106.59086283 -533.33007812 104.60693359 C-534.58721614 103.06317849 -535.86261056 101.53432975 -537.140625 100.0078125 C-538.75 97.86328125 -538.75 97.86328125 -538.75 95.86328125 C-451.24999999 45.86328125 -451.24999999 45.86328125 -449.50007629 44.86332703 C-448.33315281 44.19651215 -447.16623183 43.5296929 -445.99931335 42.86286926 C-443.08659649 41.19843424 -440.17383645 39.53407486 -437.26098633 37.86987305 C-430.76651055 34.15925508 -424.27295801 30.44703358 -417.78121948 26.73162842 C-414.8305608 25.04324995 -411.87886191 23.35674254 -408.92480469 21.67431641 C-403.41482609 18.53519933 -397.91513375 15.38165889 -392.44140625 12.1796875 C-367.7442074 -2.18933723 -339.91643763 -12.07826073 -311 -4.57421875 C-295.12385617 0.97756161 -284.73620989 9.86617144 -274.71484375 23.00390625 C-271.04656105 27.81258132 -267.21812669 32.48804706 -263.38037109 37.16186523 C-261.03707906 40.02149365 -258.73726917 42.88045777 -256.53515625 45.8515625 C-249.05165733 55.93668682 -239.09467728 61.59067726 -226.75 63.86328125 C-208.15613611 65.9108465 -194.38153123 59.04961196 -178.75 49.86328125 C-176.88045329 48.77171577 -175.01065189 47.6805864 -173.140625 46.58984375 C-170.13989574 44.83838144 -167.14007249 43.08546371 -164.14306641 41.32763672 C-156.74899377 36.99874329 -149.29807693 32.78167108 -141.8125 28.61328125 C-134.97856437 24.80681451 -128.16509953 20.98000154 -121.4375 16.98828125 C-119.38265583 15.7748759 -117.32721381 14.56249089 -115.27148438 13.35058594 C-113.36815699 12.2279029 -111.46601798 11.10320483 -109.56445312 9.97753906 C-82.08217719 -6.25855038 -82.08217719 -6.25855038 -68.75 -10.13671875 C-67.28046875 -10.63365234 -67.28046875 -10.63365234 -65.78125 -11.140625 C-44.01457927 -17.52742444 -17.97383174 -13.96546302 0 0 Z " fill="#FFB700" transform="translate(1033.75,13.13671875)"/>
<path d="M0 0 C7.7970406 5.9550213 12.89377536 12.07424489 17.625 20.6875 C17.9653125 20.2028125 18.305625 19.718125 18.65625 19.21875 C28.68596596 5.34786622 41.57435492 -4.22452674 58.625 -7.3125 C75.6783442 -8.57191474 89.74102834 -7.04199896 103.625 3.6875 C115.60800571 14.06276791 122.08486434 31.22744416 123.625 46.6875 C123.7623983 50.34934905 123.75153262 54.00758243 123.73852539 57.67163086 C123.73867142 58.75529938 123.73881744 59.8389679 123.7389679 60.95547485 C123.73827376 64.5211185 123.73050477 68.08670928 123.72265625 71.65234375 C123.7207903 74.13098624 123.71936723 76.6096291 123.71836853 79.08827209 C123.71455732 85.60003687 123.70473897 92.11177922 123.69366455 98.62353516 C123.68287729 105.27310767 123.67886447 111.92268674 123.67382812 118.57226562 C123.66311544 131.61068851 123.64552995 144.64908887 123.625 157.6875 C110.425 157.6875 97.225 157.6875 83.625 157.6875 C83.60312622 153.45099609 83.60312622 153.45099609 83.58081055 149.12890625 C83.53021261 139.74114984 83.46357489 130.35355492 83.38928509 120.96595764 C83.34477717 115.28070525 83.30547913 109.59552131 83.27856445 103.91015625 C83.25233464 98.41162945 83.21179676 92.91336888 83.16181374 87.41500854 C83.14527695 85.32936952 83.13368137 83.24368459 83.12738609 81.1579895 C83.52919 55.90568297 83.52919 55.90568297 72.95703125 33.8203125 C66.74881989 28.09176427 60.21505153 27.17264758 51.953125 27.3046875 C44.51783108 28.15992084 38.32838248 31.90905867 33.625 37.6875 C27.65997236 45.93737741 26.32876607 53.10613128 26.30615234 63.12084961 C26.29610672 64.1459967 26.2860611 65.1711438 26.27571106 66.22735596 C26.24494924 69.59817979 26.22786323 72.96892445 26.2109375 76.33984375 C26.19222024 78.68397194 26.17264641 81.02809344 26.1522522 83.37220764 C26.10098407 89.52881924 26.06132975 95.68545267 26.02410889 101.84216309 C25.98403598 108.12985613 25.9329586 114.41745878 25.8828125 120.70507812 C25.78611608 133.03249481 25.70270859 145.35994898 25.625 157.6875 C12.095 157.6875 -1.435 157.6875 -15.375 157.6875 C-15.404729 153.28325684 -15.404729 153.28325684 -15.43505859 148.79003906 C-15.50216699 139.05503598 -15.5798029 129.32013694 -15.66252708 119.58525467 C-15.71232985 113.68690563 -15.75866062 107.78857312 -15.796875 101.89013672 C-15.833931 96.19068365 -15.88034452 90.49137454 -15.93306351 84.79204559 C-15.95150004 82.62494194 -15.96664697 80.45780755 -15.97834396 78.29065704 C-15.67980573 55.39742119 -15.67980573 55.39742119 -24.375 34.6875 C-31.0467093 28.71028603 -37.13157305 27.28881283 -45.9375 27.328125 C-51.15205614 27.87328314 -54.96006741 30.00439179 -59.375 32.6875 C-60.08527344 32.98914063 -60.79554687 33.29078125 -61.52734375 33.6015625 C-63.90704032 35.00020023 -64.31688759 36.15417693 -65.375 38.6875 C-65.86097656 39.64785156 -66.34695312 40.60820312 -66.84765625 41.59765625 C-67.37230469 42.63792969 -67.89695313 43.67820313 -68.4375 44.75 C-68.96472656 45.79285156 -69.49195313 46.83570313 -70.03515625 47.91015625 C-71.73706947 51.43802884 -72.50050812 54.12267608 -72.53321838 57.99650574 C-72.54790161 59.31529976 -72.54790161 59.31529976 -72.56288147 60.66073608 C-72.56863693 61.62242706 -72.5743924 62.58411804 -72.58032227 63.57495117 C-72.59022186 64.58976059 -72.60012146 65.60457001 -72.61032104 66.65013123 C-72.64195209 70.01021986 -72.66669991 73.37032264 -72.69140625 76.73046875 C-72.71197438 79.05789053 -72.73297082 81.38530857 -72.75437927 83.71272278 C-72.80961442 89.84309863 -72.85901738 95.97350828 -72.90722656 102.10394287 C-72.95743101 108.35773735 -73.0131226 114.61148267 -73.06835938 120.86523438 C-73.17595864 133.13928251 -73.27689278 145.41337232 -73.375 157.6875 C-86.905 157.6875 -100.435 157.6875 -114.375 157.6875 C-114.705 104.2275 -115.035 50.7675 -115.375 -4.3125 C-103.495 -4.3125 -91.615 -4.3125 -79.375 -4.3125 C-78.715 2.9475 -78.055 10.2075 -77.375 17.6875 C-76.3025 16.223125 -75.23 14.75875 -74.125 13.25 C-57.03267322 -7.95770247 -23.41820631 -15.54212796 0 0 Z " fill="#003970" transform="translate(115.375,212.3125)"/>
<path d="M0 0 C13.86 0 27.72 0 42 0 C42.33 74.58 42.66 149.16 43 226 C30.79 226 18.58 226 6 226 C4.44679917 222.89359834 4.66329944 219.54219195 4.5 216.125 C4.27267175 209.98590733 4.27267175 209.98590733 3 204 C2.34257813 204.92619141 2.34257813 204.92619141 1.671875 205.87109375 C-6.70833014 217.06173354 -16.63312211 223.95252298 -30 228 C-30.80695313 228.24492187 -31.61390625 228.48984375 -32.4453125 228.7421875 C-49.5670688 232.97909669 -67.93101697 229.73054958 -83.03125 220.984375 C-101.00724203 208.96884349 -111.85373426 190.95323469 -116.4831543 170.08618164 C-121.66325766 143.33361042 -118.32610896 114.12711916 -103.24609375 91.09375 C-91.67874255 75.16098104 -76.73416723 64.46656583 -57 61 C-40.38142128 59.72648393 -24.13345911 60.26305425 -10.08984375 70.1796875 C-6.90624982 72.95268707 -3.98536404 76.01463596 -1 79 C-0.67 52.93 -0.34 26.86 0 0 Z M-63.6875 105.5625 C-73.92339042 118.14955782 -77.43414058 136.06286032 -76 152 C-74.51520881 165.01533175 -71.08375966 178.53515432 -60.88671875 187.609375 C-50.83165192 195.02056298 -41.41241924 196.97725591 -29 196 C-19.40481373 194.1810652 -12.08221833 188.59958966 -6.37109375 180.765625 C-0.01954802 170.07227636 0.50645532 159.41453382 0.44604492 147.29711914 C0.43755117 144.70312621 0.46634053 142.11135378 0.49804688 139.51757812 C0.55941408 125.08713583 -1.19950938 113.07550596 -11.625 102.32421875 C-19.13556798 95.31783242 -27.9745617 92.65491438 -38.0625 92.7890625 C-48.29198271 93.52362642 -56.64468292 98.24167698 -63.6875 105.5625 Z " fill="#00396F" transform="translate(703,144)"/>
<path d="M0 0 C1.31232355 0.95130281 2.60407127 1.93156248 3.875 2.9375 C4.69871094 3.55753906 5.52242187 4.17757812 6.37109375 4.81640625 C18.4924791 15.08460008 24.09554145 31.57891141 25.875 46.9375 C26.39809646 55.4326785 26.2256853 63.95836748 26.16796875 72.46484375 C26.16236282 74.9096297 26.15809744 77.35441905 26.15510559 79.79920959 C26.14373532 86.18600013 26.11433651 92.57258098 26.08099365 98.95928955 C26.05012299 105.49561732 26.03656416 112.03197948 26.02148438 118.56835938 C25.9894584 131.35817914 25.93675544 144.1477892 25.875 156.9375 C12.345 156.9375 -1.185 156.9375 -15.125 156.9375 C-15.17398438 150.39808594 -15.22296875 143.85867188 -15.2734375 137.12109375 C-15.30886848 132.95115742 -15.34485393 128.78124035 -15.3828125 124.61132812 C-15.44286508 118.00857459 -15.50098586 111.40584766 -15.546875 104.80297852 C-15.58404647 99.47308709 -15.63048788 94.14334622 -15.68306351 88.81358528 C-15.70143974 86.79130791 -15.71660785 84.76899848 -15.72834396 82.74667168 C-15.08312818 57.28752566 -15.08312818 57.28752566 -24.984375 34.74609375 C-32.5203705 27.75047002 -39.08988346 26.22742807 -49.265625 26.46875 C-58.63106177 27.60625244 -65.64623347 32.32824099 -71.50390625 39.57421875 C-77.58508515 48.43955185 -78.2632488 57.32509498 -78.33032227 67.82006836 C-78.34022186 68.78669403 -78.35012146 69.7533197 -78.36032104 70.74923706 C-78.39175765 73.92524822 -78.41662256 77.1012743 -78.44140625 80.27734375 C-78.4619912 82.48694738 -78.48298807 84.69654721 -78.50437927 86.90614319 C-78.5594408 92.70766105 -78.60892001 98.5092135 -78.65722656 104.31079102 C-78.70755814 110.23652202 -78.76318324 116.1622031 -78.81835938 122.08789062 C-78.92574614 133.70438592 -79.02674454 145.32092388 -79.125 156.9375 C-92.985 156.9375 -106.845 156.9375 -121.125 156.9375 C-121.455 103.4775 -121.785 50.0175 -122.125 -5.0625 C-109.915 -5.0625 -97.705 -5.0625 -85.125 -5.0625 C-84.465 2.1975 -83.805 9.4575 -83.125 16.9375 C-81.805 15.2875 -80.485 13.6375 -79.125 11.9375 C-60.16989156 -9.95974996 -24.50606179 -15.73673575 0 0 Z " fill="#00396F" transform="translate(542.125,213.0625)"/>
<path d="M0 0 C13.10646703 12.41665298 18.41387524 29.9398285 18.99398232 47.5851593 C19.07747713 51.8485926 19.09405309 56.11086303 19.1015625 60.375 C19.11593016 62.24903444 19.13169707 64.1230586 19.14877319 65.99707031 C19.19029459 70.9002679 19.21548306 75.80340193 19.23626709 80.70672607 C19.27221012 88.50828089 19.33285121 96.30971179 19.39266205 104.1111145 C19.40687661 105.9884496 19.42047677 107.86578945 19.43344879 109.74313354 C19.5298078 123.41804237 19.88110923 137.02917774 20.625 150.6875 C8.415 150.6875 -3.795 150.6875 -16.375 150.6875 C-17.66239837 145.53790653 -18.72506899 140.88694809 -19.375 135.6875 C-20.035 135.6875 -20.695 135.6875 -21.375 135.6875 C-22.53777864 136.85027864 -23.69774768 138.01599616 -24.84375 139.1953125 C-36.79367198 150.84038953 -52.71328687 155.21574478 -69.06347656 155.03881836 C-82.41184358 154.60642769 -94.78664737 150.61598299 -104.75390625 141.4375 C-116.43757748 128.82476576 -119.06291756 115.41490526 -118.51123047 98.85058594 C-118.217205 94.18200951 -117.08656233 90.01837634 -115.375 85.6875 C-115.04628906 84.85089844 -114.71757812 84.01429688 -114.37890625 83.15234375 C-107.73148827 68.27040799 -94.20865901 58.48941657 -79.375 52.6875 C-61.18519993 46.64612236 -42.4894214 44.37753641 -23.375 44.6875 C-24.48865013 33.24284374 -24.48865013 33.24284374 -30.375 23.6875 C-40.52771574 15.52346054 -53.08724308 14.91676914 -65.625 16.25 C-76.31427445 17.88588477 -87.10467624 21.08179881 -96.375 26.6875 C-97.365 26.6875 -98.355 26.6875 -99.375 26.6875 C-102.015 17.7775 -104.655 8.8675 -107.375 -0.3125 C-76.2260215 -17.32907159 -29.46916412 -23.93663905 0 0 Z M-71.8125 86.0625 C-75.87776768 91.30243426 -77.9633515 96.90343862 -77.66015625 103.61328125 C-76.73011763 110.37835671 -74.47992425 116.01703739 -69.375 120.6875 C-61.17890929 125.36889701 -53.28006682 125.86834275 -44.25 123.5625 C-35.21221665 120.53101781 -28.51699463 113.9785004 -23.71875 105.8984375 C-21.25097791 99.89891031 -22.06516573 93.11369037 -22.1875 86.75 C-22.20257008 85.38478034 -22.21625439 84.01954465 -22.22851562 82.65429688 C-22.26373836 79.33161904 -22.31299959 76.00976819 -22.375 72.6875 C-39.87079177 71.99611855 -58.95125313 72.35840443 -71.8125 86.0625 Z " fill="#00396F" transform="translate(375.375,219.3125)"/>
<path d="M0 0 C11.88 0 23.76 0 36 0 C37.24842608 2.49685215 37.19071247 4.32960028 37.28125 7.12109375 C37.33732422 8.64766602 37.33732422 8.64766602 37.39453125 10.20507812 C37.44673828 11.80512695 37.44673828 11.80512695 37.5 13.4375 C37.56886723 15.54050109 37.64161059 17.64337984 37.71875 19.74609375 C37.74904297 20.68122803 37.77933594 21.6163623 37.81054688 22.57983398 C37.91318773 25.14160629 37.91318773 25.14160629 39 28 C39.474375 26.88625 39.94875 25.7725 40.4375 24.625 C45.63908266 14.24028001 54.20796565 6.51967819 65.0625 2.75 C74.67736374 -0.33282096 82.46834314 0 93 0 C93 12.21 93 24.42 93 37 C89.7825 36.896875 86.565 36.79375 83.25 36.6875 C74.54661286 36.58632899 67.57746905 37.34366399 60 42 C58.99646484 42.58201172 58.99646484 42.58201172 57.97265625 43.17578125 C49.86265135 48.90779784 46.20753391 59.97843818 44.41406631 69.32801437 C43.78913868 73.36069612 43.69207812 77.32234759 43.68115234 81.39697266 C43.66608391 82.71589508 43.66608391 82.71589508 43.65071106 84.0614624 C43.62015146 86.92898992 43.60292057 89.7964253 43.5859375 92.6640625 C43.56720389 94.66760028 43.54762888 96.67113036 43.5272522 98.6746521 C43.47615662 103.91879714 43.43641073 109.16296769 43.39910889 114.40722656 C43.35184802 120.71505647 43.29034781 127.02276201 43.23126221 133.33049011 C43.14332552 142.88694258 43.07336399 152.44337454 43 162 C29.14 162 15.28 162 1 162 C0.67 108.54 0.34 55.08 0 0 Z " fill="#00396F" transform="translate(841,208)"/>
<path d="M0 0 C13.86 0 27.72 0 42 0 C42 53.46 42 106.92 42 162 C28.14 162 14.28 162 0 162 C0 108.54 0 55.08 0 0 Z " fill="#00396F" transform="translate(952,208)"/>
<path d="M0 0 C13.86 0 27.72 0 42 0 C42 53.46 42 106.92 42 162 C28.14 162 14.28 162 0 162 C0 108.54 0 55.08 0 0 Z " fill="#003970" transform="translate(773,208)"/>
</svg>
